<svg xmlns="http://www.w3.org/2000/svg" viewBox="0 0 16 16"><circle cx="8" cy="8" r="8" fill="#20b075"/><g fill-opacity=".25"><path d="M11.7 4.287L8.696 7.293 5.703 4.3l-1.416 7.4 4.258 4.273a8 8 0 0 0 7.435-7.407l-4.28-4.28z"/><path d="M15.99 7.707A8 8 0 0 1 8 15.5 8 8 0 0 1 .01 7.793 8 8 0 0 0 0 8a8 8 0 0 0 8 8 8 8 0 0 0 8-8 8 8 0 0 0-.01-.293z"/><path d="M15.99 8.293A8 8 0 0 0 8 .5 8 8 0 0 0 .01 8.207 8 8 0 0 1 0 8a8 8 0 0 1 8-8 8 8 0 0 1 8 8 8 8 0 0 1-.01.293z" fill="#fff"/></g><path d="M4.995 5.007v6l6-6" fill="none" stroke="#fff" stroke-width="2" stroke-linecap="round" stroke-linejoin="round"/></svg>